<svg xmlns="http://www.w3.org/2000/svg" width="1120" height="560" viewBox="0 0 1120 560">
<rect width="100%" height="100%" fill="#ffffff"/>
<text x="560.0" y="34.0" font-family="Arial, sans-serif" font-size="22" text-anchor="middle" font-weight="bold">Normalized lunar proxy oxide compositions</text>
<text x="560.0" y="56.0" font-family="Arial, sans-serif" font-size="13" text-anchor="middle" font-weight="normal">Full composition record; TiO2, K2O, and P2O5 are not active in stx21 BUILD</text>
<line x1="70" y1="422.0" x2="1040" y2="422.0" stroke="#e6e6e6"/>
<text x="60.0" y="426.0" font-family="Arial, sans-serif" font-size="12" text-anchor="end" font-weight="normal">0</text>
<line x1="70" y1="352.0" x2="1040" y2="352.0" stroke="#e6e6e6"/>
<text x="60.0" y="356.0" font-family="Arial, sans-serif" font-size="12" text-anchor="end" font-weight="normal">10</text>
<line x1="70" y1="282.0" x2="1040" y2="282.0" stroke="#e6e6e6"/>
<text x="60.0" y="286.0" font-family="Arial, sans-serif" font-size="12" text-anchor="end" font-weight="normal">20</text>
<line x1="70" y1="212.0" x2="1040" y2="212.0" stroke="#e6e6e6"/>
<text x="60.0" y="216.0" font-family="Arial, sans-serif" font-size="12" text-anchor="end" font-weight="normal">30</text>
<line x1="70" y1="142.0" x2="1040" y2="142.0" stroke="#e6e6e6"/>
<text x="60.0" y="146.0" font-family="Arial, sans-serif" font-size="12" text-anchor="end" font-weight="normal">40</text>
<line x1="70" y1="72.0" x2="1040" y2="72.0" stroke="#e6e6e6"/>
<text x="60.0" y="76.0" font-family="Arial, sans-serif" font-size="12" text-anchor="end" font-weight="normal">50</text>
<line x1="70" y1="422" x2="1040" y2="422" stroke="#333"/>
<line x1="70" y1="72" x2="70" y2="422" stroke="#333"/>
<text x="18.0" y="247.0" font-family="Arial, sans-serif" font-size="13" text-anchor="middle" font-weight="normal">wt%</text>
<text x="123.9" y="446.0" font-family="Arial, sans-serif" font-size="12" text-anchor="middle" font-weight="normal">SiO2</text>
<rect x="93.9" y="103.5" width="28.0" height="318.5" fill="#1f6f8b"/>
<rect x="123.9" y="103.9" width="28.0" height="318.1" fill="#b85c38"/>
<text x="231.7" y="446.0" font-family="Arial, sans-serif" font-size="12" text-anchor="middle" font-weight="normal">TiO2</text>
<rect x="201.7" y="417.8" width="28.0" height="4.2" fill="#1f6f8b"/>
<rect x="231.7" y="394.7" width="28.0" height="27.3" fill="#b85c38"/>
<text x="339.4" y="446.0" font-family="Arial, sans-serif" font-size="12" text-anchor="middle" font-weight="normal">Al2O3</text>
<rect x="309.4" y="254.0" width="28.0" height="168.0" fill="#1f6f8b"/>
<rect x="339.4" y="317.6" width="28.0" height="104.4" fill="#b85c38"/>
<text x="447.2" y="446.0" font-family="Arial, sans-serif" font-size="12" text-anchor="middle" font-weight="normal">FeO</text>
<rect x="417.2" y="380.7" width="28.0" height="41.3" fill="#1f6f8b"/>
<rect x="447.2" y="323.2" width="28.0" height="98.8" fill="#b85c38"/>
<text x="555.0" y="446.0" font-family="Arial, sans-serif" font-size="12" text-anchor="middle" font-weight="normal">MgO</text>
<rect x="525.0" y="369.5" width="28.0" height="52.5" fill="#1f6f8b"/>
<rect x="555.0" y="357.5" width="28.0" height="64.5" fill="#b85c38"/>
<text x="662.8" y="446.0" font-family="Arial, sans-serif" font-size="12" text-anchor="middle" font-weight="normal">CaO</text>
<rect x="632.8" y="310.7" width="28.0" height="111.3" fill="#1f6f8b"/>
<rect x="662.8" y="339.3" width="28.0" height="82.7" fill="#b85c38"/>
<text x="770.6" y="446.0" font-family="Arial, sans-serif" font-size="12" text-anchor="middle" font-weight="normal">Na2O</text>
<rect x="740.6" y="417.8" width="28.0" height="4.2" fill="#1f6f8b"/>
<rect x="770.6" y="417.8" width="28.0" height="4.2" fill="#b85c38"/>
<text x="878.3" y="446.0" font-family="Arial, sans-serif" font-size="12" text-anchor="middle" font-weight="normal">K2O</text>
<rect x="848.3" y="422.0" width="28.0" height="0.0" fill="#1f6f8b"/>
<rect x="878.3" y="422.0" width="28.0" height="0.0" fill="#b85c38"/>
<text x="986.1" y="446.0" font-family="Arial, sans-serif" font-size="12" text-anchor="middle" font-weight="normal">P2O5</text>
<rect x="956.1" y="422.0" width="28.0" height="0.0" fill="#1f6f8b"/>
<rect x="986.1" y="422.0" width="28.0" height="0.0" fill="#b85c38"/>
<rect x="70" y="469" width="16" height="16" fill="#1f6f8b"/>
<text x="94.0" y="482.0" font-family="Arial, sans-serif" font-size="13" text-anchor="start" font-weight="normal">Far side / highlands proxy</text>
<rect x="70" y="493" width="16" height="16" fill="#b85c38"/>
<text x="94.0" y="506.0" font-family="Arial, sans-serif" font-size="13" text-anchor="start" font-weight="normal">Near side / maria proxy</text>
<text x="560.0" y="542.0" font-family="Arial, sans-serif" font-size="11" text-anchor="middle" font-weight="normal">Generated by plot_comparisons.py</text>
</svg>
