<svg xmlns="http://www.w3.org/2000/svg" width="1240" height="900" viewBox="0 0 1240 900">
<rect width="100%" height="100%" fill="#ffffff"/>
<text x="620.0" y="34.0" font-family="Arial, sans-serif" font-size="22" text-anchor="middle" font-weight="bold">Near/far PlanetProfile property comparison</text>
<text x="620.0" y="56.0" font-family="Arial, sans-serif" font-size="13" text-anchor="middle" font-weight="normal">Each curve is the mean value at pressure over the sampled temperature grid</text>
<text x="345.0" y="72.0" font-family="Arial, sans-serif" font-size="15" text-anchor="middle" font-weight="bold">Density (kg/m3)</text>
<rect x="85" y="88" width="520" height="215" fill="#fafafa" stroke="#d0d0d0"/>
<line x1="85.0" y1="88" x2="85.0" y2="303" stroke="#ececec"/>
<text x="85.0" y="321.0" font-family="Arial, sans-serif" font-size="11" text-anchor="middle" font-weight="normal">0.0</text>
<line x1="85" y1="303.0" x2="605" y2="303.0" stroke="#ececec"/>
<text x="77.0" y="307.0" font-family="Arial, sans-serif" font-size="11" text-anchor="end" font-weight="normal">2.8e+03</text>
<line x1="215.0" y1="88" x2="215.0" y2="303" stroke="#ececec"/>
<text x="215.0" y="321.0" font-family="Arial, sans-serif" font-size="11" text-anchor="middle" font-weight="normal">1.3</text>
<line x1="85" y1="249.2" x2="605" y2="249.2" stroke="#ececec"/>
<text x="77.0" y="253.2" font-family="Arial, sans-serif" font-size="11" text-anchor="end" font-weight="normal">3.1e+03</text>
<line x1="345.0" y1="88" x2="345.0" y2="303" stroke="#ececec"/>
<text x="345.0" y="321.0" font-family="Arial, sans-serif" font-size="11" text-anchor="middle" font-weight="normal">2.7</text>
<line x1="85" y1="195.5" x2="605" y2="195.5" stroke="#ececec"/>
<text x="77.0" y="199.5" font-family="Arial, sans-serif" font-size="11" text-anchor="end" font-weight="normal">3.3e+03</text>
<line x1="475.0" y1="88" x2="475.0" y2="303" stroke="#ececec"/>
<text x="475.0" y="321.0" font-family="Arial, sans-serif" font-size="11" text-anchor="middle" font-weight="normal">4.0</text>
<line x1="85" y1="141.8" x2="605" y2="141.8" stroke="#ececec"/>
<text x="77.0" y="145.8" font-family="Arial, sans-serif" font-size="11" text-anchor="end" font-weight="normal">3.5e+03</text>
<line x1="605.0" y1="88" x2="605.0" y2="303" stroke="#ececec"/>
<text x="605.0" y="321.0" font-family="Arial, sans-serif" font-size="11" text-anchor="middle" font-weight="normal">5.4</text>
<line x1="85" y1="88.0" x2="605" y2="88.0" stroke="#ececec"/>
<text x="77.0" y="92.0" font-family="Arial, sans-serif" font-size="11" text-anchor="end" font-weight="normal">3.7e+03</text>
<text x="345.0" y="341.0" font-family="Arial, sans-serif" font-size="12" text-anchor="middle" font-weight="normal">Pressure (GPa)</text>
<polyline points="94.6,288.2 106.8,285.9 118.9,283.6 131.0,281.1 143.1,277.8 155.2,271.2 167.3,260.5 179.5,249.3 191.6,240.8 203.7,233.7 215.8,227.9 227.9,222.6 240.0,216.4 252.2,209.9 264.3,202.7 276.4,194.6 288.5,186.4 300.6,178.5 312.7,171.0 324.9,163.6 337.0,156.6 349.1,151.3 361.2,148.9 373.3,146.9 385.4,144.9 397.6,143.0 409.7,141.1 421.8,139.2 433.9,137.4 446.0,135.6 458.1,133.9 470.3,132.2 482.4,130.5 494.5,128.9 506.6,127.3 518.7,125.7 530.8,124.2 543.0,122.8 555.1,121.3 567.2,120.0" fill="none" stroke="#1f6f8b" stroke-width="2.4"/>
<polyline points="94.6,243.7 106.8,241.1 118.9,238.2 131.0,235.2 143.1,229.4 155.2,220.8 167.3,210.0 179.5,197.5 191.6,188.7 203.7,182.2 215.8,175.4 227.9,168.0 240.0,160.0 252.2,151.5 264.3,143.6 276.4,137.5 288.5,132.6 300.6,129.2 312.7,126.9 324.9,124.9 337.0,123.1 349.1,121.7 361.2,120.4 373.3,119.2 385.4,118.1 397.6,116.9 409.7,115.8 421.8,114.7 433.9,113.6 446.0,112.6 458.1,111.5 470.3,110.5 482.4,109.5 494.5,108.5 506.6,107.5 518.7,106.6 530.8,105.6 543.0,104.7 555.1,103.7 567.2,102.8" fill="none" stroke="#b85c38" stroke-width="2.4"/>
<text x="955.0" y="72.0" font-family="Arial, sans-serif" font-size="15" text-anchor="middle" font-weight="bold">P-wave speed (km/s)</text>
<rect x="695" y="88" width="520" height="215" fill="#fafafa" stroke="#d0d0d0"/>
<line x1="695.0" y1="88" x2="695.0" y2="303" stroke="#ececec"/>
<text x="695.0" y="321.0" font-family="Arial, sans-serif" font-size="11" text-anchor="middle" font-weight="normal">0.0</text>
<line x1="695" y1="303.0" x2="1215" y2="303.0" stroke="#ececec"/>
<text x="687.0" y="307.0" font-family="Arial, sans-serif" font-size="11" text-anchor="end" font-weight="normal">6.3</text>
<line x1="825.0" y1="88" x2="825.0" y2="303" stroke="#ececec"/>
<text x="825.0" y="321.0" font-family="Arial, sans-serif" font-size="11" text-anchor="middle" font-weight="normal">1.3</text>
<line x1="695" y1="249.2" x2="1215" y2="249.2" stroke="#ececec"/>
<text x="687.0" y="253.2" font-family="Arial, sans-serif" font-size="11" text-anchor="end" font-weight="normal">7</text>
<line x1="955.0" y1="88" x2="955.0" y2="303" stroke="#ececec"/>
<text x="955.0" y="321.0" font-family="Arial, sans-serif" font-size="11" text-anchor="middle" font-weight="normal">2.7</text>
<line x1="695" y1="195.5" x2="1215" y2="195.5" stroke="#ececec"/>
<text x="687.0" y="199.5" font-family="Arial, sans-serif" font-size="11" text-anchor="end" font-weight="normal">7.6</text>
<line x1="1085.0" y1="88" x2="1085.0" y2="303" stroke="#ececec"/>
<text x="1085.0" y="321.0" font-family="Arial, sans-serif" font-size="11" text-anchor="middle" font-weight="normal">4.0</text>
<line x1="695" y1="141.8" x2="1215" y2="141.8" stroke="#ececec"/>
<text x="687.0" y="145.8" font-family="Arial, sans-serif" font-size="11" text-anchor="end" font-weight="normal">8.2</text>
<line x1="1215.0" y1="88" x2="1215.0" y2="303" stroke="#ececec"/>
<text x="1215.0" y="321.0" font-family="Arial, sans-serif" font-size="11" text-anchor="middle" font-weight="normal">5.4</text>
<line x1="695" y1="88.0" x2="1215" y2="88.0" stroke="#ececec"/>
<text x="687.0" y="92.0" font-family="Arial, sans-serif" font-size="11" text-anchor="end" font-weight="normal">8.9</text>
<text x="955.0" y="341.0" font-family="Arial, sans-serif" font-size="12" text-anchor="middle" font-weight="normal">Pressure (GPa)</text>
<polyline points="704.6,273.7 716.8,271.3 728.9,269.1 741.0,267.0 753.1,264.3 765.2,259.1 777.3,250.9 789.5,241.7 801.6,233.1 813.7,225.8 825.8,219.7 837.9,214.2 850.0,208.1 862.2,201.7 874.3,195.0 886.4,187.3 898.5,179.4 910.6,172.2 922.7,165.6 934.9,159.1 947.0,153.1 959.1,148.0 971.2,144.8 983.3,141.8 995.4,138.8 1007.6,135.9 1019.7,133.1 1031.8,130.3 1043.9,127.6 1056.0,125.0 1068.1,122.5 1080.3,120.0 1092.4,117.6 1104.5,115.3 1116.6,113.0 1128.7,110.8 1140.8,108.7 1153.0,106.7 1165.1,104.7 1177.2,102.8" fill="none" stroke="#1f6f8b" stroke-width="2.4"/>
<polyline points="704.6,288.2 716.8,285.4 728.9,282.4 741.0,279.4 753.1,274.3 765.2,266.9 777.3,257.6 789.5,246.3 801.6,237.4 813.7,229.6 825.8,221.3 837.9,212.3 850.0,202.7 862.2,192.6 874.3,183.0 886.4,175.0 898.5,168.3 910.6,163.5 922.7,159.7 934.9,156.4 947.0,153.7 959.1,151.6 971.2,150.0 983.3,148.5 995.4,147.1 1007.6,145.8 1019.7,144.4 1031.8,143.1 1043.9,141.9 1056.0,140.6 1068.1,139.4 1080.3,138.3 1092.4,137.1 1104.5,135.9 1116.6,134.8 1128.7,133.7 1140.8,132.7 1153.0,131.6 1165.1,130.6 1177.2,129.5" fill="none" stroke="#b85c38" stroke-width="2.4"/>
<text x="345.0" y="345.0" font-family="Arial, sans-serif" font-size="15" text-anchor="middle" font-weight="bold">S-wave speed (km/s)</text>
<rect x="85" y="361" width="520" height="215" fill="#fafafa" stroke="#d0d0d0"/>
<line x1="85.0" y1="361" x2="85.0" y2="576" stroke="#ececec"/>
<text x="85.0" y="594.0" font-family="Arial, sans-serif" font-size="11" text-anchor="middle" font-weight="normal">0.0</text>
<line x1="85" y1="576.0" x2="605" y2="576.0" stroke="#ececec"/>
<text x="77.0" y="580.0" font-family="Arial, sans-serif" font-size="11" text-anchor="end" font-weight="normal">3.5</text>
<line x1="215.0" y1="361" x2="215.0" y2="576" stroke="#ececec"/>
<text x="215.0" y="594.0" font-family="Arial, sans-serif" font-size="11" text-anchor="middle" font-weight="normal">1.3</text>
<line x1="85" y1="522.2" x2="605" y2="522.2" stroke="#ececec"/>
<text x="77.0" y="526.2" font-family="Arial, sans-serif" font-size="11" text-anchor="end" font-weight="normal">3.9</text>
<line x1="345.0" y1="361" x2="345.0" y2="576" stroke="#ececec"/>
<text x="345.0" y="594.0" font-family="Arial, sans-serif" font-size="11" text-anchor="middle" font-weight="normal">2.7</text>
<line x1="85" y1="468.5" x2="605" y2="468.5" stroke="#ececec"/>
<text x="77.0" y="472.5" font-family="Arial, sans-serif" font-size="11" text-anchor="end" font-weight="normal">4.2</text>
<line x1="475.0" y1="361" x2="475.0" y2="576" stroke="#ececec"/>
<text x="475.0" y="594.0" font-family="Arial, sans-serif" font-size="11" text-anchor="middle" font-weight="normal">4.0</text>
<line x1="85" y1="414.8" x2="605" y2="414.8" stroke="#ececec"/>
<text x="77.0" y="418.8" font-family="Arial, sans-serif" font-size="11" text-anchor="end" font-weight="normal">4.6</text>
<line x1="605.0" y1="361" x2="605.0" y2="576" stroke="#ececec"/>
<text x="605.0" y="594.0" font-family="Arial, sans-serif" font-size="11" text-anchor="middle" font-weight="normal">5.4</text>
<line x1="85" y1="361.0" x2="605" y2="361.0" stroke="#ececec"/>
<text x="77.0" y="365.0" font-family="Arial, sans-serif" font-size="11" text-anchor="end" font-weight="normal">5</text>
<text x="345.0" y="614.0" font-family="Arial, sans-serif" font-size="12" text-anchor="middle" font-weight="normal">Pressure (GPa)</text>
<polyline points="94.6,561.2 106.8,559.3 118.9,557.5 131.0,555.6 143.1,552.7 155.2,546.6 167.3,536.2 179.5,524.7 191.6,515.4 203.7,507.6 215.8,500.9 227.9,494.9 240.0,487.9 252.2,480.7 264.3,472.6 276.4,463.6 288.5,454.4 300.6,445.4 312.7,436.7 324.9,428.1 337.0,419.9 349.1,413.4 361.2,410.4 373.3,407.9 385.4,405.4 397.6,402.9 409.7,400.6 421.8,398.3 433.9,396.0 446.0,393.9 458.1,391.8 470.3,389.8 482.4,387.8 494.5,385.9 506.6,384.1 518.7,382.3 530.8,380.6 543.0,378.9 555.1,377.3 567.2,375.8" fill="none" stroke="#1f6f8b" stroke-width="2.4"/>
<polyline points="94.6,557.4 106.8,555.3 118.9,552.8 131.0,550.3 143.1,545.0 155.2,536.7 167.3,525.9 179.5,513.1 191.6,503.7 203.7,496.6 215.8,488.9 227.9,480.4 240.0,471.1 252.2,461.4 264.3,452.3 276.4,445.4 288.5,439.8 300.6,436.0 312.7,433.3 324.9,431.1 337.0,429.2 349.1,427.7 361.2,426.5 373.3,425.4 385.4,424.3 397.6,423.3 409.7,422.3 421.8,421.3 433.9,420.3 446.0,419.4 458.1,418.5 470.3,417.7 482.4,416.8 494.5,416.0 506.6,415.2 518.7,414.4 530.8,413.6 543.0,412.9 555.1,412.2 567.2,411.5" fill="none" stroke="#b85c38" stroke-width="2.4"/>
<text x="955.0" y="345.0" font-family="Arial, sans-serif" font-size="15" text-anchor="middle" font-weight="bold">Thermal expansivity (10^-5 / K)</text>
<rect x="695" y="361" width="520" height="215" fill="#fafafa" stroke="#d0d0d0"/>
<line x1="695.0" y1="361" x2="695.0" y2="576" stroke="#ececec"/>
<text x="695.0" y="594.0" font-family="Arial, sans-serif" font-size="11" text-anchor="middle" font-weight="normal">0.0</text>
<line x1="695" y1="576.0" x2="1215" y2="576.0" stroke="#ececec"/>
<text x="687.0" y="580.0" font-family="Arial, sans-serif" font-size="11" text-anchor="end" font-weight="normal">2.4</text>
<line x1="825.0" y1="361" x2="825.0" y2="576" stroke="#ececec"/>
<text x="825.0" y="594.0" font-family="Arial, sans-serif" font-size="11" text-anchor="middle" font-weight="normal">1.3</text>
<line x1="695" y1="522.2" x2="1215" y2="522.2" stroke="#ececec"/>
<text x="687.0" y="526.2" font-family="Arial, sans-serif" font-size="11" text-anchor="end" font-weight="normal">2.7</text>
<line x1="955.0" y1="361" x2="955.0" y2="576" stroke="#ececec"/>
<text x="955.0" y="594.0" font-family="Arial, sans-serif" font-size="11" text-anchor="middle" font-weight="normal">2.7</text>
<line x1="695" y1="468.5" x2="1215" y2="468.5" stroke="#ececec"/>
<text x="687.0" y="472.5" font-family="Arial, sans-serif" font-size="11" text-anchor="end" font-weight="normal">3</text>
<line x1="1085.0" y1="361" x2="1085.0" y2="576" stroke="#ececec"/>
<text x="1085.0" y="594.0" font-family="Arial, sans-serif" font-size="11" text-anchor="middle" font-weight="normal">4.0</text>
<line x1="695" y1="414.8" x2="1215" y2="414.8" stroke="#ececec"/>
<text x="687.0" y="418.8" font-family="Arial, sans-serif" font-size="11" text-anchor="end" font-weight="normal">3.4</text>
<line x1="1215.0" y1="361" x2="1215.0" y2="576" stroke="#ececec"/>
<text x="1215.0" y="594.0" font-family="Arial, sans-serif" font-size="11" text-anchor="middle" font-weight="normal">5.4</text>
<line x1="695" y1="361.0" x2="1215" y2="361.0" stroke="#ececec"/>
<text x="687.0" y="365.0" font-family="Arial, sans-serif" font-size="11" text-anchor="end" font-weight="normal">3.7</text>
<text x="955.0" y="614.0" font-family="Arial, sans-serif" font-size="12" text-anchor="middle" font-weight="normal">Pressure (GPa)</text>
<polyline points="704.6,538.5 716.8,541.7 728.9,543.9 741.0,545.6 753.1,546.0 765.2,543.0 777.3,535.4 789.5,528.5 801.6,528.3 813.7,528.8 825.8,528.8 837.9,528.8 850.0,527.5 862.2,526.0 874.3,523.5 886.4,520.2 898.5,517.6 910.6,513.9 922.7,509.3 934.9,504.7 947.0,499.6 959.1,497.5 971.2,501.5 983.3,506.0 995.4,510.4 1007.6,514.7 1019.7,518.9 1031.8,522.9 1043.9,526.8 1056.0,530.5 1068.1,534.1 1080.3,537.6 1092.4,540.9 1104.5,544.2 1116.6,547.3 1128.7,550.3 1140.8,553.2 1153.0,555.9 1165.1,558.6 1177.2,561.2" fill="none" stroke="#1f6f8b" stroke-width="2.4"/>
<polyline points="704.6,375.8 716.8,385.2 728.9,394.9 741.0,404.0 753.1,410.0 765.2,412.7 777.3,412.9 789.5,412.2 801.6,415.8 813.7,422.9 825.8,429.6 837.9,436.1 850.0,442.3 862.2,448.1 874.3,453.7 886.4,459.9 898.5,466.7 910.6,473.5 922.7,480.1 934.9,486.4 947.0,491.3 959.1,494.9 971.2,497.8 983.3,500.4 995.4,502.9 1007.6,505.3 1019.7,507.7 1031.8,510.0 1043.9,512.3 1056.0,514.5 1068.1,516.7 1080.3,518.9 1092.4,521.0 1104.5,523.1 1116.6,525.2 1128.7,527.2 1140.8,529.2 1153.0,531.2 1165.1,533.1 1177.2,535.0" fill="none" stroke="#b85c38" stroke-width="2.4"/>
<text x="345.0" y="618.0" font-family="Arial, sans-serif" font-size="15" text-anchor="middle" font-weight="bold">Bulk modulus (GPa)</text>
<rect x="85" y="634" width="520" height="215" fill="#fafafa" stroke="#d0d0d0"/>
<line x1="85.0" y1="634" x2="85.0" y2="849" stroke="#ececec"/>
<text x="85.0" y="867.0" font-family="Arial, sans-serif" font-size="11" text-anchor="middle" font-weight="normal">0.0</text>
<line x1="85" y1="849.0" x2="605" y2="849.0" stroke="#ececec"/>
<text x="77.0" y="853.0" font-family="Arial, sans-serif" font-size="11" text-anchor="end" font-weight="normal">70</text>
<line x1="215.0" y1="634" x2="215.0" y2="849" stroke="#ececec"/>
<text x="215.0" y="867.0" font-family="Arial, sans-serif" font-size="11" text-anchor="middle" font-weight="normal">1.3</text>
<line x1="85" y1="795.2" x2="605" y2="795.2" stroke="#ececec"/>
<text x="77.0" y="799.2" font-family="Arial, sans-serif" font-size="11" text-anchor="end" font-weight="normal">94</text>
<line x1="345.0" y1="634" x2="345.0" y2="849" stroke="#ececec"/>
<text x="345.0" y="867.0" font-family="Arial, sans-serif" font-size="11" text-anchor="middle" font-weight="normal">2.7</text>
<line x1="85" y1="741.5" x2="605" y2="741.5" stroke="#ececec"/>
<text x="77.0" y="745.5" font-family="Arial, sans-serif" font-size="11" text-anchor="end" font-weight="normal">1.2e+02</text>
<line x1="475.0" y1="634" x2="475.0" y2="849" stroke="#ececec"/>
<text x="475.0" y="867.0" font-family="Arial, sans-serif" font-size="11" text-anchor="middle" font-weight="normal">4.0</text>
<line x1="85" y1="687.8" x2="605" y2="687.8" stroke="#ececec"/>
<text x="77.0" y="691.8" font-family="Arial, sans-serif" font-size="11" text-anchor="end" font-weight="normal">1.4e+02</text>
<line x1="605.0" y1="634" x2="605.0" y2="849" stroke="#ececec"/>
<text x="605.0" y="867.0" font-family="Arial, sans-serif" font-size="11" text-anchor="middle" font-weight="normal">5.4</text>
<line x1="85" y1="634.0" x2="605" y2="634.0" stroke="#ececec"/>
<text x="77.0" y="638.0" font-family="Arial, sans-serif" font-size="11" text-anchor="end" font-weight="normal">1.6e+02</text>
<text x="345.0" y="887.0" font-family="Arial, sans-serif" font-size="12" text-anchor="middle" font-weight="normal">Pressure (GPa)</text>
<polyline points="94.6,828.8 106.8,826.6 118.9,824.5 131.0,822.5 143.1,820.0 155.2,815.2 167.3,807.6 179.5,798.9 191.6,790.5 203.7,783.4 215.8,777.4 227.9,772.0 240.0,766.0 252.2,759.7 264.3,753.1 276.4,745.6 288.5,737.9 300.6,730.7 312.7,724.2 324.9,717.7 337.0,711.7 349.1,706.5 361.2,702.7 373.3,699.0 385.4,695.4 397.6,691.8 409.7,688.2 421.8,684.8 433.9,681.4 446.0,678.1 458.1,674.8 470.3,671.6 482.4,668.5 494.5,665.5 506.6,662.5 518.7,659.7 530.8,656.8 543.0,654.1 555.1,651.4 567.2,648.8" fill="none" stroke="#1f6f8b" stroke-width="2.4"/>
<polyline points="94.6,834.2 106.8,831.7 118.9,829.0 131.0,826.3 143.1,821.5 155.2,814.5 167.3,805.5 179.5,794.5 191.6,785.4 203.7,777.1 215.8,768.2 227.9,758.6 240.0,748.3 252.2,737.8 264.3,727.8 276.4,719.4 288.5,712.4 300.6,707.0 312.7,702.5 324.9,698.5 337.0,695.1 349.1,692.5 361.2,690.3 373.3,688.4 385.4,686.5 397.6,684.6 409.7,682.8 421.8,681.1 433.9,679.3 446.0,677.6 458.1,675.9 470.3,674.2 482.4,672.6 494.5,670.9 506.6,669.3 518.7,667.7 530.8,666.1 543.0,664.6 555.1,663.0 567.2,661.5" fill="none" stroke="#b85c38" stroke-width="2.4"/>
<text x="955.0" y="618.0" font-family="Arial, sans-serif" font-size="15" text-anchor="middle" font-weight="bold">Shear modulus (GPa)</text>
<rect x="695" y="634" width="520" height="215" fill="#fafafa" stroke="#d0d0d0"/>
<line x1="695.0" y1="634" x2="695.0" y2="849" stroke="#ececec"/>
<text x="695.0" y="867.0" font-family="Arial, sans-serif" font-size="11" text-anchor="middle" font-weight="normal">0.0</text>
<line x1="695" y1="849.0" x2="1215" y2="849.0" stroke="#ececec"/>
<text x="687.0" y="853.0" font-family="Arial, sans-serif" font-size="11" text-anchor="end" font-weight="normal">34</text>
<line x1="825.0" y1="634" x2="825.0" y2="849" stroke="#ececec"/>
<text x="825.0" y="867.0" font-family="Arial, sans-serif" font-size="11" text-anchor="middle" font-weight="normal">1.3</text>
<line x1="695" y1="795.2" x2="1215" y2="795.2" stroke="#ececec"/>
<text x="687.0" y="799.2" font-family="Arial, sans-serif" font-size="11" text-anchor="end" font-weight="normal">48</text>
<line x1="955.0" y1="634" x2="955.0" y2="849" stroke="#ececec"/>
<text x="955.0" y="867.0" font-family="Arial, sans-serif" font-size="11" text-anchor="middle" font-weight="normal">2.7</text>
<line x1="695" y1="741.5" x2="1215" y2="741.5" stroke="#ececec"/>
<text x="687.0" y="745.5" font-family="Arial, sans-serif" font-size="11" text-anchor="end" font-weight="normal">62</text>
<line x1="1085.0" y1="634" x2="1085.0" y2="849" stroke="#ececec"/>
<text x="1085.0" y="867.0" font-family="Arial, sans-serif" font-size="11" text-anchor="middle" font-weight="normal">4.0</text>
<line x1="695" y1="687.8" x2="1215" y2="687.8" stroke="#ececec"/>
<text x="687.0" y="691.8" font-family="Arial, sans-serif" font-size="11" text-anchor="end" font-weight="normal">75</text>
<line x1="1215.0" y1="634" x2="1215.0" y2="849" stroke="#ececec"/>
<text x="1215.0" y="867.0" font-family="Arial, sans-serif" font-size="11" text-anchor="middle" font-weight="normal">5.4</text>
<line x1="695" y1="634.0" x2="1215" y2="634.0" stroke="#ececec"/>
<text x="687.0" y="638.0" font-family="Arial, sans-serif" font-size="11" text-anchor="end" font-weight="normal">89</text>
<text x="955.0" y="887.0" font-family="Arial, sans-serif" font-size="12" text-anchor="middle" font-weight="normal">Pressure (GPa)</text>
<polyline points="704.6,834.2 716.8,832.7 728.9,831.2 741.0,829.6 753.1,827.3 765.2,821.9 777.3,812.8 789.5,802.4 801.6,793.3 813.7,785.4 825.8,778.7 837.9,772.6 850.0,765.6 862.2,758.4 874.3,750.6 886.4,741.9 898.5,733.0 910.6,724.2 922.7,715.5 934.9,706.9 947.0,698.7 959.1,692.2 971.2,688.9 983.3,686.1 995.4,683.2 1007.6,680.5 1019.7,677.8 1031.8,675.2 1043.9,672.6 1056.0,670.1 1068.1,667.7 1080.3,665.3 1092.4,663.1 1104.5,660.8 1116.6,658.7 1128.7,656.6 1140.8,654.5 1153.0,652.6 1165.1,650.7 1177.2,648.8" fill="none" stroke="#1f6f8b" stroke-width="2.4"/>
<polyline points="704.6,822.3 716.8,820.6 728.9,818.5 741.0,816.4 753.1,811.5 765.2,803.9 777.3,793.6 789.5,781.1 801.6,771.8 813.7,764.5 825.8,756.6 837.9,747.9 850.0,738.5 862.2,728.8 874.3,720.1 886.4,713.4 898.5,708.1 910.6,704.3 922.7,701.5 934.9,699.2 947.0,697.1 959.1,695.5 971.2,694.0 983.3,692.7 995.4,691.4 1007.6,690.2 1019.7,688.9 1031.8,687.8 1043.9,686.6 1056.0,685.5 1068.1,684.4 1080.3,683.3 1092.4,682.2 1104.5,681.2 1116.6,680.1 1128.7,679.1 1140.8,678.2 1153.0,677.2 1165.1,676.2 1177.2,675.3" fill="none" stroke="#b85c38" stroke-width="2.4"/>
<rect x="85" y="843" width="16" height="16" fill="#1f6f8b"/>
<text x="109.0" y="856.0" font-family="Arial, sans-serif" font-size="13" text-anchor="start" font-weight="normal">Far side / highlands proxy</text>
<rect x="375" y="843" width="16" height="16" fill="#b85c38"/>
<text x="399.0" y="856.0" font-family="Arial, sans-serif" font-size="13" text-anchor="start" font-weight="normal">Near side / maria proxy</text>
<text x="1212.0" y="882.0" font-family="Arial, sans-serif" font-size="11" text-anchor="end" font-weight="normal">Generated by plot_comparisons.py</text>
</svg>
